<mxfile host="app.diagrams.net" modified="2023-05-17T07:47:11.846Z" agent="Mozilla/5.0 (Windows NT 10.0; Win64; x64) AppleWebKit/537.36 (KHTML, like Gecko) Chrome/113.0.0.0 Safari/537.36" version="21.3.2" etag="drNjqw5-tXZbJ7Qtx60x" type="github">
  <diagram name="‫עמוד-1‬" id="C41rRbUCfwXjD2mZD7Qz">
    <mxGraphModel>
      <root>
        <mxCell id="0" />
        <mxCell id="1" parent="0" />
      </root>
    </mxGraphModel>
  </diagram>
</mxfile>
